<mxfile host="app.diagrams.net" modified="2024-03-01T16:38:08.930Z" agent="Mozilla/5.0 (Windows NT 10.0; Win64; x64) AppleWebKit/537.36 (KHTML, like Gecko) Chrome/121.0.0.0 Safari/537.36" version="23.1.6" etag="a6kS2ZMwczKbL3Ad5lAH" type="github">
  <diagram name="Page-1" id="bplJ9rHQuSwyp8E1O0IF">
    <mxGraphModel>
      <root>
        <mxCell id="0" />
        <mxCell id="1" parent="0" />
      </root>
    </mxGraphModel>
  </diagram>
</mxfile>
